HIERARCHY
ROOT hip
{
  OFFSET 0.00112043 5.09927 -9.65472
  CHANNELS 6 Xposition Yposition Zposition Zrotation Xrotation Yrotation
  JOINT abdomen
  {
    OFFSET 0 -1.186 -1.5018
    CHANNELS 3 Zrotation Xrotation Yrotation
    JOINT abdomen2
    {
      OFFSET 0 9.964 0.2134
      CHANNELS 3 Zrotation Xrotation Yrotation
      JOINT chest
      {
        OFFSET 0 13.134 -3.2573
        CHANNELS 3 Zrotation Xrotation Yrotation
        JOINT neck
        {
          OFFSET 0 20.686 -1.6905
          CHANNELS 3 Zrotation Xrotation Yrotation
          JOINT head
          {
            OFFSET 0 7.238 -0.1237
            CHANNELS 3 Zrotation Xrotation Yrotation
            End Site
            {
              OFFSET 0 0 0
            }
          }
        }
        JOINT lCollar
        {
          OFFSET 1.7069 20.075 5.0056
          CHANNELS 3 Zrotation Xrotation Yrotation
          JOINT lShldr
          {
            OFFSET 13.6458 -0.047 -4.849
            CHANNELS 3 Zrotation Xrotation Yrotation
            JOINT lForeArm
            {
              OFFSET 28.3255 -0.9759 2.2888
              CHANNELS 3 Zrotation Xrotation Yrotation
              JOINT lHand
              {
                OFFSET 22.1583 -0.53 10.8316
                CHANNELS 3 Zrotation Xrotation Yrotation
                JOINT lThumb1
                {
                  OFFSET 0.786 0.112 2.5817
                  CHANNELS 3 Zrotation Xrotation Yrotation
                  JOINT lThumb2
                  {
                    OFFSET 0.3601 -0.878 4.2331
                    CHANNELS 3 Zrotation Xrotation Yrotation
                    JOINT lThumb2_End
                    {
                      OFFSET 1.8127 -1.216 2.2227
                      CHANNELS 3 Zrotation Xrotation Yrotation
                      End Site
                      {
                        OFFSET 0.0181 -0.0122 0.0222
                      }
                    }
                  }
                }
                JOINT lCarpal1
                {
                  OFFSET 0.9571 1.114 1.7695
                  CHANNELS 3 Zrotation Xrotation Yrotation
                  JOINT lIndex1
                  {
                    OFFSET 4.1246 0.487 4.1451
                    CHANNELS 3 Zrotation Xrotation Yrotation
                    JOINT lIndex2
                    {
                      OFFSET 3.4052 -1.454 2.7682
                      CHANNELS 3 Zrotation Xrotation Yrotation
                      JOINT lIndex2_End
                      {
                        OFFSET 1.4531 -1.795 1.2713
                        CHANNELS 3 Zrotation Xrotation Yrotation
                        End Site
                        {
                          OFFSET 0.0145 -0.0179 0.0127
                        }
                      }
                    }
                  }
                  JOINT lMid1
                  {
                    OFFSET 5.6954 0.21 2.1184
                    CHANNELS 3 Zrotation Xrotation Yrotation
                    JOINT lMid2
                    {
                      OFFSET 3.9766 -1.54 2.3863
                      CHANNELS 3 Zrotation Xrotation Yrotation
                      JOINT lMid2_End
                      {
                        OFFSET 1.4042 -1.926 1.125
                        CHANNELS 3 Zrotation Xrotation Yrotation
                        End Site
                        {
                          OFFSET 0.014 -0.0193 0.0113
                        }
                      }
                    }
                  }
                }
                JOINT lCarpal2
                {
                  OFFSET 2.0956 0.66 -0.3894
                  CHANNELS 3 Zrotation Xrotation Yrotation
                  JOINT lRing1
                  {
                    OFFSET 5.0395 -0.09 2.4971
                    CHANNELS 3 Zrotation Xrotation Yrotation
                    JOINT lRing2
                    {
                      OFFSET 3.7921 -1.552 1.4806
                      CHANNELS 3 Zrotation Xrotation Yrotation
                      JOINT lRing2_End
                      {
                        OFFSET 1.4655 -1.808 0.9609
                        CHANNELS 3 Zrotation Xrotation Yrotation
                        End Site
                        {
                          OFFSET 0.0147 -0.0181 0.0096
                        }
                      }
                    }
                  }
                  JOINT lPinky1
                  {
                    OFFSET 4.9141 -1.269 0.3591
                    CHANNELS 3 Zrotation Xrotation Yrotation
                    JOINT lPinky2
                    {
                      OFFSET 3.1477 -1.685 0.8462
                      CHANNELS 3 Zrotation Xrotation Yrotation
                      JOINT lPinky2_End
                      {
                        OFFSET 0.8055 -1.585 0.7955
                        CHANNELS 3 Zrotation Xrotation Yrotation
                        End Site
                        {
                          OFFSET 0.0081 -0.0158 0.008
                        }
                      }
                    }
                  }
                }
              }
            }
          }
        }
        JOINT rCollar
        {
          OFFSET -1.7069 20.075 5.0056
          CHANNELS 3 Zrotation Xrotation Yrotation
          JOINT rShldr
          {
            OFFSET -13.6458 -0.047 -4.849
            CHANNELS 3 Zrotation Xrotation Yrotation
            JOINT rForeArm
            {
              OFFSET -28.3255 -0.9759 2.2888
              CHANNELS 3 Zrotation Xrotation Yrotation
              JOINT rHand
              {
                OFFSET -22.1583 -0.53 10.8316
                CHANNELS 3 Zrotation Xrotation Yrotation
                JOINT rThumb1
                {
                  OFFSET -0.786 0.112 2.5817
                  CHANNELS 3 Zrotation Xrotation Yrotation
                  JOINT rThumb2
                  {
                    OFFSET -0.3601 -0.878 4.2331
                    CHANNELS 3 Zrotation Xrotation Yrotation
                    JOINT rThumb2_End
                    {
                      OFFSET -1.8127 -1.216 2.2227
                      CHANNELS 3 Zrotation Xrotation Yrotation
                      End Site
                      {
                        OFFSET -0.0181 -0.0122 0.0222
                      }
                    }
                  }
                }
                JOINT rCarpal1
                {
                  OFFSET -0.9571 1.114 1.7695
                  CHANNELS 3 Zrotation Xrotation Yrotation
                  JOINT rIndex1
                  {
                    OFFSET -4.1246 0.487 4.1451
                    CHANNELS 3 Zrotation Xrotation Yrotation
                    JOINT rIndex2
                    {
                      OFFSET -3.4052 -1.454 2.7682
                      CHANNELS 3 Zrotation Xrotation Yrotation
                      JOINT rIndex2_End
                      {
                        OFFSET -1.4531 -1.795 1.2713
                        CHANNELS 3 Zrotation Xrotation Yrotation
                        End Site
                        {
                          OFFSET -0.0145 -0.018 0.0127
                        }
                      }
                    }
                  }
                  JOINT rMid1
                  {
                    OFFSET -5.6954 0.21 2.1184
                    CHANNELS 3 Zrotation Xrotation Yrotation
                    JOINT rMid2
                    {
                      OFFSET -3.9766 -1.54 2.3863
                      CHANNELS 3 Zrotation Xrotation Yrotation
                      JOINT rMid2_End
                      {
                        OFFSET -1.4042 -1.926 1.125
                        CHANNELS 3 Zrotation Xrotation Yrotation
                        End Site
                        {
                          OFFSET -0.014 -0.0193 0.0113
                        }
                      }
                    }
                  }
                }
                JOINT rCarpal2
                {
                  OFFSET -2.0956 0.66 -0.3894
                  CHANNELS 3 Zrotation Xrotation Yrotation
                  JOINT rRing1
                  {
                    OFFSET -5.0395 -0.09 2.4971
                    CHANNELS 3 Zrotation Xrotation Yrotation
                    JOINT rRing2
                    {
                      OFFSET -3.7921 -1.552 1.4806
                      CHANNELS 3 Zrotation Xrotation Yrotation
                      JOINT rRing2_End
                      {
                        OFFSET -1.4655 -1.808 0.9609
                        CHANNELS 3 Zrotation Xrotation Yrotation
                        End Site
                        {
                          OFFSET -0.0147 -0.0181 0.0096
                        }
                      }
                    }
                  }
                  JOINT rPinky1
                  {
                    OFFSET -4.9141 -1.269 0.3592
                    CHANNELS 3 Zrotation Xrotation Yrotation
                    JOINT rPinky2
                    {
                      OFFSET -3.1477 -1.685 0.8462
                      CHANNELS 3 Zrotation Xrotation Yrotation
                      JOINT rPinky2_End
                      {
                        OFFSET -0.8055 -1.585 0.7955
                        CHANNELS 3 Zrotation Xrotation Yrotation
                        End Site
                        {
                          OFFSET -0.0081 -0.0158 0.008
                        }
                      }
                    }
                  }
                }
              }
            }
          }
        }
      }
    }
  }
  JOINT lThigh
  {
    OFFSET 8.367 -8.2066 0.5982
    CHANNELS 3 Zrotation Xrotation Yrotation
    JOINT lShin
    {
      OFFSET 2.1923 -43.463 -0.4932
      CHANNELS 3 Zrotation Xrotation Yrotation
      JOINT lFoot
      {
        OFFSET 0.7333 -45.8593 -2.6451
        CHANNELS 3 Zrotation Xrotation Yrotation
        End Site
        {
          OFFSET 2.6618 -4.2699 12.3931
        }
      }
    }
  }
  JOINT rThigh
  {
    OFFSET -8.367 -8.2066 0.5982
    CHANNELS 3 Zrotation Xrotation Yrotation
    JOINT rShin
    {
      OFFSET -2.1923 -43.463 -0.4931
      CHANNELS 3 Zrotation Xrotation Yrotation
      JOINT rFoot
      {
        OFFSET -0.7333 -45.8593 -2.6451
        CHANNELS 3 Zrotation Xrotation Yrotation
        End Site
        {
          OFFSET -2.6618 -4.2699 12.3931
        }
      }
    }
  }
}
MOTION
Frames:	4
Frame Time:	0.0333333
42.5656 -1.74734 42.1391 179.997 58.9977 -1.13208e-010 0.545153 7.9867 -0.572834 1.18944 15.967 -1.24164 1.18944 15.9671 -1.24164 0.000129549 13.9924 -2.94188e-005 8.06013e-008 0.69153 -3.61494e-007 -48.3443 -3.40029 -5.05975 1.93615 55.4999 16.2264 9.10552 35.8821 3.87062 6.56434 4.87779 -5.13535 3.97569e-015 2.38542e-014 -0 1.41245e-030 2.54444e-014 -3.18055e-015 3.35457e-030 3.02153e-014 -6.36111e-015 3.18055e-015 0 3.18055e-015 2.38542e-015 2.70347e-014 6.36111e-015 7.95139e-016 3.02153e-014 -0 7.95139e-016 2.8625e-014 -3.18055e-015 2.38542e-015 2.70347e-014 6.36111e-015 7.95139e-016 3.02153e-014 -0 7.95139e-016 2.8625e-014 -3.18055e-015 3.18055e-015 0 3.18055e-015 2.38542e-015 2.70347e-014 6.36111e-015 7.95139e-016 3.02153e-014 -0 7.95139e-016 2.8625e-014 -3.18055e-015 2.38542e-015 2.70347e-014 6.36111e-015 7.95139e-016 3.02153e-014 -0 7.95139e-016 2.8625e-014 -3.18055e-015 46.3195 -6.88401 -13.6095 41.3795 -12.726 65.8951 -99.1435 79.0666 134.831 -3.30169 -31.2454 10.2348 5.62697e-007 -2.75615e-006 4.58314e-006 2.88758e-006 1.17945e-006 -2.36579e-006 4.77083e-015 -3.18055e-015 -0 -3.18055e-015 0 -6.36111e-015 5.62697e-007 -2.75615e-006 4.58314e-006 2.88758e-006 1.17945e-006 -2.36579e-006 1.59028e-015 6.36111e-015 -3.18055e-015 5.62697e-007 -2.75615e-006 4.58314e-006 2.88758e-006 1.17945e-006 -2.36579e-006 1.59028e-015 6.36111e-015 -3.18055e-015 -3.18055e-015 0 -6.36111e-015 5.62697e-007 -2.75615e-006 4.58314e-006 2.88758e-006 1.17945e-006 -2.36579e-006 1.59028e-015 6.36111e-015 -3.18055e-015 5.62697e-007 -2.75615e-006 4.58314e-006 2.88758e-006 1.17945e-006 -2.36579e-006 1.59028e-015 6.36111e-015 -3.18055e-015 62.0085 -56.4201 95.0673 124.383 42.8816 -118.156 25.8592 -0.82741 8.32063 -41.8196 -54.9331 -77.7674 -114.495 43.1701 129.895 -16.5662 6.62217 -31.2949 
42.5598 -1.74756 42.2127 179.997 58.9977 1.63597e-010 0.545716 7.9367 -0.571465 1.18962 15.8671 -1.23819 1.18962 15.8671 -1.23819 5.22913e-006 13.9933 8.0632e-007 7.84645e-007 0.66221 7.63506e-008 -48.1293 -3.43177 -4.73975 2.01336 55.4945 15.6301 8.95918 35.9272 4.15108 6.53506 5.11921 -5.16214 -1.59028e-015 -1.59028e-015 -0 -7.95139e-016 -4.77083e-015 3.18055e-015 -3.18055e-015 -3.18055e-015 6.36111e-015 0 0 -3.18055e-015 -7.95139e-016 -3.18055e-015 3.18055e-015 -1.59028e-015 -1.59028e-015 -0 -3.18055e-015 -3.18055e-015 -0 -7.95139e-016 -3.18055e-015 3.18055e-015 -1.59028e-015 -1.59028e-015 -0 -3.18055e-015 -3.18055e-015 -0 0 0 -3.18055e-015 -7.95139e-016 -3.18055e-015 3.18055e-015 -1.59028e-015 -1.59028e-015 -0 -3.18055e-015 -3.18055e-015 -0 -7.95139e-016 -3.18055e-015 3.18055e-015 -1.59028e-015 -1.59028e-015 -0 -3.18055e-015 -3.18055e-015 -0 46.3954 -6.70777 -13.6179 41.3147 -12.7396 65.6225 -98.319 79.5957 133.685 -3.09261 -31.18 10.2114 -1.87805e-006 8.90497e-007 4.34547e-006 -7.63954e-007 -1.72748e-006 2.61798e-006 -4.77083e-015 -3.18055e-015 1.59028e-015 -1.59028e-015 3.18055e-015 -3.18055e-015 -1.87805e-006 8.90497e-007 4.34547e-006 -7.63954e-007 -1.72748e-006 2.61798e-006 -9.54166e-015 6.36111e-015 -1.59028e-015 -1.87805e-006 8.90497e-007 4.34547e-006 -7.63954e-007 -1.72748e-006 2.61798e-006 -9.54166e-015 6.36111e-015 -1.59028e-015 -1.59028e-015 3.18055e-015 -3.18055e-015 -1.87805e-006 8.90497e-007 4.34547e-006 -7.63954e-007 -1.72748e-006 2.61798e-006 -9.54166e-015 6.36111e-015 -1.59028e-015 -1.87805e-006 8.90497e-007 4.34547e-006 -7.63954e-007 -1.72748e-006 2.61798e-006 -9.54166e-015 6.36111e-015 -1.59028e-015 61.7554 -56.35 94.8262 124.237 43.0705 -117.958 25.8736 -0.849045 8.31018 -41.824 -54.9323 -77.7658 -114.492 43.171 129.895 -16.5614 6.62296 -31.2926 
42.554 -1.74776 42.2863 179.997 58.9977 1.63597e-010 0.546275 7.8867 -0.570094 1.1898 15.7671 -1.23474 1.1898 15.7671 -1.23474 -5.86332e-006 13.9936 -1.25427e-006 -5.11476e-008 0.632891 2.37888e-007 -47.9141 -3.46203 -4.41959 2.09047 55.4886 15.0339 8.81247 35.9716 4.43184 6.50588 5.36064 -5.18883 -3.18055e-015 0 -3.18055e-015 -1.84343e-006 4.4205e-007 -2.21556e-007 -2.38542e-015 0 1.27222e-014 -1.59028e-015 0 3.18055e-015 -3.18055e-015 -3.18055e-015 2.22639e-014 -1.84343e-006 4.4205e-007 -2.21556e-007 -1.59028e-015 1.59028e-015 9.54166e-015 -3.18055e-015 -3.18055e-015 2.22639e-014 -1.84343e-006 4.4205e-007 -2.21556e-007 -1.59028e-015 1.59028e-015 9.54166e-015 -1.59028e-015 0 3.18055e-015 -3.18055e-015 -3.18055e-015 2.22639e-014 -1.84343e-006 4.4205e-007 -2.21556e-007 -1.59028e-015 1.59028e-015 9.54166e-015 -3.18055e-015 -3.18055e-015 2.22639e-014 -1.84343e-006 4.4205e-007 -2.21556e-007 -1.59028e-015 1.59028e-015 9.54166e-015 46.4714 -6.53149 -13.6265 41.2498 -12.7529 65.3498 -97.4037 80.1073 132.445 -2.88362 -31.1148 10.1877 4.77083e-015 1.27222e-014 -3.18055e-015 -1.04308e-006 -1.98938e-006 -1.86179e-006 1.59028e-015 6.36111e-015 -0 4.77083e-015 3.18055e-015 -3.18055e-015 6.36111e-015 -3.18055e-015 -0 -1.04308e-006 -1.98938e-006 -1.86179e-006 -3.18055e-015 3.18055e-015 -3.18055e-015 6.36111e-015 -3.18055e-015 -0 -1.04308e-006 -1.98938e-006 -1.86179e-006 -3.18055e-015 3.18055e-015 -3.18055e-015 4.77083e-015 3.18055e-015 -3.18055e-015 6.36111e-015 -3.18055e-015 -0 -1.04308e-006 -1.98938e-006 -1.86179e-006 -3.18055e-015 3.18055e-015 -3.18055e-015 6.36111e-015 -3.18055e-015 -0 -1.04308e-006 -1.98938e-006 -1.86179e-006 -3.18055e-015 3.18055e-015 -3.18055e-015 61.5039 -56.279 94.5867 124.09 43.2589 -117.759 25.8879 -0.870649 8.2998 -41.8284 -54.9315 -77.7643 -114.489 43.1718 129.895 -16.5567 6.62386 -31.2902 
42.5483 -1.74795 42.36 179.997 58.9977 1.63597e-010 0.546836 7.83668 -0.568722 1.18998 15.6671 -1.23129 1.18998 15.6671 -1.23129 -1.10384e-008 13.9935 -2.38848e-007 -3.82965e-007 0.603584 -5.83226e-008 -47.6987 -3.4911 -4.09936 2.16743 55.4824 14.4379 8.66538 36.0154 4.71293 6.47685 5.60203 -5.21581 8.25768e-007 1.91809e-007 8.02299e-008 8.25768e-007 1.91809e-007 8.02299e-008 8.82781e-032 -1.59028e-015 3.18055e-015 3.97569e-015 3.18055e-015 -0 8.25768e-007 1.91809e-007 8.02299e-008 8.25768e-007 1.91809e-007 8.02299e-008 1.59028e-015 -1.59028e-015 3.18055e-015 8.25768e-007 1.91809e-007 8.02299e-008 8.25768e-007 1.91809e-007 8.02299e-008 1.59028e-015 -1.59028e-015 3.18055e-015 3.97569e-015 3.18055e-015 -0 8.25768e-007 1.91809e-007 8.02299e-008 8.25768e-007 1.91809e-007 8.02299e-008 1.59028e-015 -1.59028e-015 3.18055e-015 8.25768e-007 1.91809e-007 8.02299e-008 8.25768e-007 1.91809e-007 8.02299e-008 1.59028e-015 -1.59028e-015 3.18055e-015 46.5473 -6.35526 -13.6353 41.1848 -12.7659 65.0771 -96.3881 80.6013 131.102 -2.67479 -31.0497 10.1637 -6.36111e-015 6.36111e-015 -0 -7.1623e-007 -1.73158e-006 2.62404e-006 -3.18055e-015 3.18055e-015 -1.59028e-015 -6.36111e-015 6.36111e-015 -0 -1.59028e-015 0 -1.59028e-015 -7.1623e-007 -1.73158e-006 2.62404e-006 -9.54166e-015 0 -3.18055e-015 -1.59028e-015 0 -1.59028e-015 -7.1623e-007 -1.73158e-006 2.62404e-006 -9.54166e-015 0 -3.18055e-015 -6.36111e-015 6.36111e-015 -0 -1.59028e-015 0 -1.59028e-015 -7.1623e-007 -1.73158e-006 2.62404e-006 -9.54166e-015 0 -3.18055e-015 -1.59028e-015 0 -1.59028e-015 -7.1623e-007 -1.73158e-006 2.62404e-006 -9.54166e-015 0 -3.18055e-015 61.2525 -56.2078 94.3475 123.941 43.4469 -117.559 25.9021 -0.892312 8.2895 -41.8327 -54.9307 -77.7627 -114.485 43.1726 129.895 -16.5519 6.62466 -31.2879 
